<?xml version="1.0" encoding="UTF-8" standalone="no"?>
<!DOCTYPE svg PUBLIC "-//W3C//DTD SVG 1.1//EN" "http://www.w3.org/Graphics/SVG/1.1/DTD/svg11.dtd">
<svg width="100%" height="100%" viewBox="0 0 1000 1000" version="1.1" xmlns="http://www.w3.org/2000/svg" xmlns:xlink="http://www.w3.org/1999/xlink" xml:space="preserve" xmlns:serif="http://www.serif.com/" style="fill-rule:evenodd;clip-rule:evenodd;stroke-linejoin:round;stroke-miterlimit:2;">
    <path d="M500.8,261.4C370.4,261.1 264.8,365.8 264.6,495.4C264.4,625 369.4,730.6 498.6,731C629.3,731.3 735,626.5 735.2,496.4C735.2,366.7 630.5,261.6 500.8,261.4ZM266.7,629.6C257.5,614.4 238.3,609.2 222,617.6C217.4,620 213,622.7 208.5,625.3C183.5,639.7 158.4,653.9 133.6,668.6C119.4,677 113.8,692.4 118.4,707.5C122.8,721.8 135.8,731.3 151.8,731.2C156.3,731.6 161.4,730.3 166,727.7C196.3,710.4 226.8,693.4 256.7,675.3C272.5,665.7 276.3,645.4 266.7,629.6ZM730.1,355.4C734.3,369 747.7,379 762,379.1C767.3,379.3 772.5,378.2 777,375.7C807.6,358.3 838.3,341.1 868.4,323.1C883.7,313.9 887.8,294.2 879.2,278.9C870.5,263.5 851.7,256.3 836,264.8C804.3,282 773.2,300.1 742.3,318.6C730.2,326 725.9,341.7 730.1,355.4ZM507.1,231.7C525.9,231.6 540.5,216.7 540.6,197.1C540.7,180.7 540.6,164.2 540.6,147.8L540.6,97.6C540.2,78.6 525.7,64 507.2,63.9C488.3,63.8 473.3,78.5 473.2,97.9C473,131.1 473,164.3 473.2,197.5C473.3,216.8 488.3,231.7 507.1,231.7ZM507.2,767.9C488.3,767.8 473.3,782.5 473.2,801.9C473,835.1 473,868.3 473.2,901.5C473.3,920.9 488.2,935.8 507,935.8C525.8,935.7 540.4,920.8 540.5,901.2C540.6,884.8 540.5,868.3 540.5,851.8L540.5,801.6C540.2,782.7 525.7,768 507.2,767.9ZM196.7,530C215.7,529.9 230,516.4 230.8,498C231.6,479.5 217.9,463.4 198.8,463C164.1,462.3 129.4,462.3 94.8,463C76.2,463.4 62,479.6 62.6,497.2C63,515.8 77.9,529.9 97,530C113.8,530.1 130.5,530 147.3,530C163.8,530 180.2,530.1 196.7,530ZM905.4,463C870.7,462.3 836,462.3 801.4,463C782.8,463.4 768.6,479.6 769.2,497.2C769.7,515.7 784.6,529.9 803.7,530C820.5,530.1 837.2,530 854,530C870.5,530 886.9,530.1 903.4,530C922.4,529.9 936.7,516.4 937.5,498C938.3,479.5 924.6,463.4 905.4,463ZM655,275.2C666.8,275 676.8,270.6 682.8,260.5C700.8,230.3 718.7,199.9 735.7,169.2C744.3,153.7 737.8,134.4 722.6,125.6C707.3,116.7 687.4,120.2 678.2,135.3C659.7,165.6 641.7,196.2 624.9,227.4C613.2,249.2 630.3,275.1 655,275.2ZM866.4,668.6C837.6,651.7 808.6,634.9 779.5,618.6C762.2,608.9 742.4,614.4 733,630.7C723.3,647.5 728.9,666.9 746.9,677.3C774.8,693.5 802.8,709.6 830.8,725.6C836.6,728.9 842.7,731.6 849.2,731.1C864.6,731.1 877.9,721.2 882,707.2C886.4,692.2 880.6,677 866.4,668.6ZM319.3,251.6C325.8,262.6 335.6,268.4 348.6,268.3C374.5,268.2 390.5,241.5 377.8,218.5C361.4,189 344.4,159.8 327.1,130.9C317.1,114.2 297.4,109.5 281.2,118.9C265.1,128.4 259.5,147.9 269,164.8C285.5,193.9 302.4,222.8 319.3,251.6ZM134.2,325.5C162.8,342.2 191.6,358.6 220.3,375.2C225.7,378.3 231.4,379.9 235.8,379.7C252.7,379.6 265.9,369.8 270,355.7C274.2,340.9 268.7,325.6 255,317.6C226,300.5 196.8,283.6 167.4,267.1C150.2,257.4 130.1,263.1 120.9,279.4C111.4,296.2 116.7,315.3 134.2,325.5ZM369.8,735.7C352.9,725.7 332.9,731.3 322.3,749.4C306,777.3 289.9,805.3 273.7,833.2C270.5,838.8 268.1,844.6 268.5,850.7C268.4,866.5 278,879.5 292.3,883.7C307.5,888.2 322.7,882.6 331.1,868.5C347.9,840.2 364.2,811.7 380.6,783.2C390.8,765.4 386.2,745.4 369.8,735.7ZM681.3,742.2C670.6,724 650.7,718.4 633.9,728.3C617.5,738 612.8,758 623,775.8C631.1,790.1 639.5,804.2 647.8,818.5C656.2,833 664.2,847.6 673,861.9C681.4,875.6 697.3,881.1 712.2,876.4C725.9,872.1 735.2,859 735.2,842.8C735.6,837.6 733.3,831.7 730.1,826.1C713.8,798.1 697.7,770.1 681.3,742.2Z" style="fill:rgb(255,235,59);fill-rule:nonzero;"/>
</svg>
